Coordinates
version=1
nRows=20
nColumns=34
inDegrees=yes

Units are S.I. units (second, meters, Newtons, ...)
If the header above contains a line with 'inDegrees', this indicates whether rotational values are in degrees (yes) or radians (no).

endheader
time	pelvis_tilt	pelvis_list	pelvis_rotation	pelvis_tx	pelvis_ty	pelvis_tz	hip_flexion_r	hip_adduction_r	hip_rotation_r	knee_angle_r	ankle_angle_r	subtalar_angle_r	mtp_angle_r	hip_flexion_l	hip_adduction_l	hip_rotation_l	knee_angle_l	ankle_angle_l	subtalar_angle_l	mtp_angle_l	lumbar_extension	lumbar_bending	lumbar_rotation	arm_flex_r	arm_add_r	arm_rot_r	elbow_flex_r	pro_sup_r	arm_flex_l	arm_add_l	arm_rot_l	elbow_flex_l	pro_sup_l
      0.00000000	    -90.00000018	    -30.69994888	     -0.57211622	     -3.34318832	      0.70930882	      0.18178280	    119.99999986	     30.00000025	     39.99999995	      0.00000000	     50.00000000	      2.89163996	      0.00000000	     93.95073387	    -10.34299308	    -39.99999995	    107.55645376	    -50.00000000	     30.46166619	      0.00000000	     79.58368539	     90.00000018	     89.99991823	    -75.39210770	    165.04467104	     35.96399906	     16.89117728	      2.46202083	     65.45183318	     -5.32041979	     26.73072858	     15.21569096	      3.11264418
      0.01666670	    -90.00000018	    -32.05059096	     -7.98638349	     -3.32181318	      0.71166947	      0.19067573	    119.99999986	    -50.00000023	     11.21450226	      0.00000000	     50.00000000	    -35.00000000	      0.00000000	     93.03259215	    -23.19259003	    -39.99999995	    109.38294134	    -50.00000000	     29.38804372	      0.00000000	     80.39666397	     90.00000018	     88.43915936	    -67.94683728	    163.43449104	     46.10610878	     18.47875927	      3.53518602	     72.55440037	     -7.38422248	     33.46096731	     12.93208085	      4.85229568
      0.03333330	    -90.00000018	    -36.01089149	     -7.46144452	     -3.31829866	      0.71431601	      0.19369944	    119.99999986	    -50.00000023	     13.19328835	      0.00000000	     50.00000000	    -35.00000000	      0.00000000	     93.33591226	    -23.62837136	    -39.99999995	    109.49219021	    -50.00000000	     28.55122788	      0.00000000	     80.65436261	     90.00000018	     88.69685807	    -69.62740993	    161.78027062	     47.22021121	     18.46418568	      3.72878497	     69.66970194	     -7.95892620	     34.40791744	     11.73688749	      5.11929012
      0.05000000	    -90.00000018	    -34.32678963	     -8.44260784	     -3.32983145	      0.71578033	      0.19537494	    119.99999986	    -50.00000023	     11.95700407	      0.00000000	     50.00000000	    -35.00000000	      0.00000000	     93.99184587	    -24.45351108	    -39.99999995	    110.44007768	    -50.00000000	     26.18521894	      0.00000000	     80.92201649	     90.00000018	     88.96451928	    -79.03451873	    159.07696831	    136.19220030	      9.97517471	     19.77164462	     71.64448272	    -12.41104583	    100.15694585	      4.88158214	     29.89929251
      0.06666670	    -90.00000018	    -33.39372376	     -9.02625767	     -3.33054460	      0.71455938	      0.19620930	    119.99999986	    -50.00000023	     10.75215184	      0.00000000	     50.00000000	    -35.00000000	      0.00000000	     95.22141801	    -24.11292202	    -39.99999995	    110.28572965	    -50.00000000	     25.98379674	      0.00000000	     81.92398307	     90.00000018	     89.96648589	    -79.62712565	    158.43429804	    136.17329673	      9.36202104	     19.68847004	     71.31263846	    -13.04718814	    100.15384013	      4.71265565	     29.80876785
      0.08333330	    -90.00000018	    -30.11281299	     -9.45949185	     -3.31535380	      0.71206084	      0.19661677	    119.99999986	    -50.00000023	      9.56005756	      0.00000000	     50.00000000	    -35.00000000	      0.00000000	     95.30587473	    -24.03049514	    -39.99999995	    110.23288502	    -50.00000000	     25.99354451	      0.00000000	     82.21413706	     90.00000018	     89.83442083	    -81.08263411	    157.79712775	    136.16088196	      8.00958388	     19.48439782	     70.71829460	    -14.26820060	    100.12459425	      4.21682806	     29.55156413
      0.10000000	    -90.00000018	    -30.44308159	     -9.66690340	     -3.30351440	      0.70803380	      0.19624633	    119.99999986	    -50.00000023	      9.35270589	      0.00000000	     50.00000000	    -35.00000000	      0.00000000	     95.11780058	    -23.84505009	    -39.99999995	    110.31492993	    -50.00000000	     25.98923964	      0.00000000	     82.32377708	     90.00000018	     89.94406086	    -81.09034962	    157.73923621	    136.17120754	      7.97100463	     19.47606208	     70.72885633	    -14.39585756	    100.11768980	      4.14999239	     29.53457809
      0.11666670	    -90.00000018	    -34.64999783	    -10.28942455	     -3.31665830	      0.70540373	      0.19696870	    119.99999986	    -50.00000023	      8.52276255	      0.00000000	     50.00000000	    -35.00000000	      0.00000000	     95.48796137	    -24.27189421	    -39.99999995	    109.97495341	    -50.00000000	     24.82858058	      0.00000000	     82.91278434	     90.00000018	     88.88404869	    -81.33290861	    156.20171535	    136.42432928	      7.56218554	     19.39416069	     71.52806260	    -14.63368588	    100.00861320	      3.52601980	     29.27160346
      0.13333330	    -90.00000018	    -29.76125383	    -13.13754147	     -3.34885640	      0.70635869	      0.19932818	    119.99999986	    -50.00000023	      3.65987833	      0.00000000	     50.00000000	    -35.00000000	      0.00000000	     95.68654265	    -27.21983421	    -39.99999995	    110.21411874	    -50.00000000	     24.02036753	      0.00000000	     82.74991359	     90.00000018	     88.72117818	    -78.68044408	    154.61831732	    137.49172383	      8.71694832	     19.36629860	     74.60564253	    -15.79507654	     99.67777464	      1.87732837	     28.54430662
      0.15000000	    -90.00000018	    -19.40159167	    -15.97617581	     -3.37085789	      0.70914332	      0.20168001	    119.99999986	    -50.00000023	     -3.60613492	      0.00000000	     50.00000000	    -35.00000000	      0.00000000	     95.88382095	    -30.75832219	    -39.99999995	    110.26189640	    -50.00000000	     24.34923680	      0.00000000	     82.73945957	     90.00000018	     88.71072442	    -73.81149845	    155.00737375	    138.36398895	      9.14011637	     19.19887041	     78.99621007	    -18.53310199	     99.72721463	      1.10790073	     28.05904711
      0.16666670	    -90.00000018	    -14.32503480	    -15.63825647	     -3.36662193	      0.71173312	      0.20260831	    119.99999986	    -50.00000023	     -4.85700306	      0.00000000	     50.00000000	    -35.00000000	      0.00000000	     95.34320037	    -30.80256152	    -39.99999995	    110.23431265	    -50.00000000	     23.43300976	      0.00000000	     82.10982946	     90.00000018	     88.08109447	    -72.49327007	    156.06596093	    138.57613644	      7.97397839	     18.88725015	     80.05596125	    -18.65139428	    100.26212242	      2.33299818	     27.99621416
      0.18333330	    -90.00000018	    -16.25353556	    -13.47541318	     -3.35293141	      0.71240551	      0.20249539	    119.99999986	    -50.00000023	      1.04912458	      0.00000000	     50.00000000	    -35.00000000	      0.00000000	     94.32253541	    -29.15292666	    -39.99999995	    110.46198142	    -50.00000000	     21.54010340	      0.00000000	     80.92031909	     90.00000018	     86.89158418	    -72.28197523	    158.27552170	    138.67180381	      7.46192412	     18.63254256	     80.42436941	    -17.17185246	    100.83302539	      3.74016092	     28.02277293
      0.20000000	    -90.00000018	    -17.33198579	    -10.99740850	     -3.35309261	      0.71100134	      0.20334543	    119.99999986	    -50.00000023	      6.43708861	      0.00000000	     50.00000000	    -35.00000000	      0.00000000	     92.32209942	    -27.41748453	    -39.99999995	    110.77735192	    -50.00000000	     19.94135797	      0.00000000	     80.36702042	     90.00000018	     86.33828554	    -72.82457690	    159.31923922	    138.74757901	      7.16703068	     18.46652504	     80.39505720	    -14.87341021	    101.20358361	      4.85106718	     28.02709180
      0.21666670	    -90.00000018	    -19.24790420	     -9.44747832	     -3.36609781	      0.70866081	      0.20557664	    119.99999986	    -50.00000023	      9.40685942	      0.00000000	     50.00000000	    -35.00000000	      0.00000000	     90.41424024	    -27.04163164	    -39.99999995	    111.84634629	    -50.00000000	     16.51328451	      0.00000000	     82.35023805	     90.00000018	     88.32150452	    -75.24293803	    166.59304767	    151.82670442	      4.82407203	      9.38579127	     77.85144469	     -4.59917675	    114.03744418	      0.00000000	     20.56278092
      0.23333330	    -90.00000018	    -19.44572712	     -9.51206640	     -3.37807569	      0.70510032	      0.20846025	    119.99999986	    -50.00000023	      9.69274891	      0.00000000	     50.00000000	    -35.00000000	      0.00000000	     89.47765631	    -27.44630815	    -39.99999995	    111.96051751	    -50.00000000	     16.78761840	      0.00000000	     82.35776526	     90.00000018	     88.32903174	    -75.27924297	    166.49283268	    151.85305275	      4.82687461	      9.37538892	     77.97908948	     -4.51692754	    114.04603083	      0.06472203	     20.54984314
      0.25000000	    -90.00000018	    -19.10438719	    -10.18912456	     -3.38496820	      0.70159080	      0.21074399	    119.99999986	    -50.00000023	      9.27238434	      0.00000000	     50.00000000	    -35.00000000	      0.00000000	     88.42127235	    -28.64726115	    -39.99999995	    111.61672181	    -50.00000000	     15.78021835	      0.00000000	     82.13942668	     90.00000018	     88.11069528	    -74.86533897	    164.31337291	    172.55079954	      2.09053007	      0.00000000	     79.35489533	     -6.16096891	    105.34449621	      2.84004598	      5.81241408
      0.26666670	    -90.00000018	    -19.41846405	    -10.13507317	     -3.38494807	      0.69777385	      0.21067304	    119.99999986	    -50.00000023	      8.92529160	      0.00000000	     50.00000000	    -35.00000000	      0.00000000	     87.79706460	    -28.93642878	    -39.99999995	    111.68701177	    -50.00000000	     15.94365609	      0.00000000	     82.51748334	     90.00000018	     88.48875195	    -74.92762909	    164.16447292	    172.55617460	      2.06929561	      0.00000000	     79.23113700	     -6.42597939	    105.33034542	      2.72804860	      5.80198569
      0.28333330	    -90.00000018	    -19.96827943	    -10.08044214	     -3.37388802	      0.69713542	      0.20775155	    119.99999986	    -50.00000023	      7.34954926	      0.00000000	     50.00000000	    -35.00000000	      0.00000000	     85.85197907	    -29.99996426	    -39.99999995	    112.06505046	    -50.00000000	     13.80695303	      0.00000000	     82.37275993	     90.00000018	     88.34402869	    -75.50525928	    162.62374457	    172.68332271	      1.90890300	      0.00000000	     76.97769549	     -9.35966383	    104.75957957	      0.88048104	      5.53629892
      0.30000000	    -90.00000018	    -22.32728767	     -9.32932942	     -3.35865923	      0.69869030	      0.20355865	    119.99999986	    -50.00000023	      7.83084449	      0.00000000	     50.00000000	    -35.00000000	      0.00000000	     83.88125101	    -30.13365239	    -39.99999995	    111.76568214	    -50.00000000	     12.79052943	      0.00000000	     82.53309830	     90.00000018	     88.50436715	    -76.30333461	    160.67561237	    172.63113875	      1.64579750	      0.00000000	     76.24842742	     -9.48428029	    104.36389188	      0.76060446	      5.42845118
      0.31666670	    -90.00000018	    -23.02941275	     -9.07933768	     -3.35868551	      0.70186034	      0.20268988	    119.99999986	    -50.00000023	      7.70295165	      0.00000000	     50.00000000	    -35.00000000	      0.00000000	     82.82912203	    -30.52587916	    -39.99999995	    112.01909243	    -50.00000000	     13.04391296	      0.00000000	     82.82348721	     90.00000018	     88.79475607	    -76.42003987	    160.41808223	    172.61808999	      1.60667722	      0.00000000	     76.14394642	     -9.61926183	    104.32305458	      0.70582644	      5.41656565
